<?xml version="1.0" encoding="UTF-8"?><svg id="Layer_1" xmlns="http://www.w3.org/2000/svg" viewBox="0 0 123.82 50.28"><path d="M54.3,28.41c-1.63-.15-1.24,1.33-1.74,2.45-.38.85-1.09,1.24-1.47,1.87-1.26,2.07-1.35,3.9-4.22,4.87-2.26.76-2.97-.05-4.67,0-1.35.03-2.51.6-4.25.31-2.44-.41-3.5-2.89-4.48-3.19s-2.68.84-3.97.86-4.37-1.17-5.63-1.79c-.82-.4-2.46-1.83-2.86-1.94-.47-.13-1.66.02-2.46-.17-1.05-.25-2.45-1.05-3.19-1.83-.48-.51-1.25-2.27-1.36-2.34-.28-.2-1.96-.31-2.64-.59-1.33-.56-1.83-1.95-2.64-2.38s-2.21-.36-3.18-.65C1.25,22.61-.77,19.99.27,15.49c.45-1.96,2.66-3.07,4.55-2.83,1.12.14,4.54,2.33,5.49,3.12.52.43,1.15,1.65,1.76,1.83.91.26,2-.05,3.18.41.77.3,1.83,1.5,2.28,1.55,1.25.13,2.12-.81,4.29-.23,1.58.43,3.06,2.16,3.65,2.33,1.99.57,4.42.57,6.6,1.54,1.62.72,2.33,1.97,3.42,3.26.77-.64,2.14-1.27,3.13-1.39,2.01-.25,3.36.89,5.42.15,1.69-.61,1.52-2.55,1.99-4.23.31-1.13.7-2.86,1.13-3.89.29-.7,1.61-2.17,1.62-2.44,0-.35-.53-1.2-.66-1.73s.02-1.05-.11-1.56c-.14-.54-1.04-1.44-1.33-2.26-2.66-7.5,7.33-12.59,11.79-6.26,1.24,1.76.78,2.62,1.15,4.34.5,2.3,1.8,5.37,2.07,7.49.11.85-.09,1.78.03,2.59.15.94.89,1.86.95,3.13.03.56-.35,1.11-.21,1.61.1.38,1.64,1.63,2.09,2.71.34.82.48,2.75.62,2.97.11.17,2.52,1.27,3.37,2.37.96,1.24.89,2.45,1.55,3.47.15.23,2.93,2.78,3.12,2.86.23.1,4.44,1.3,4.68,1.31,1.08.07,2.41-.73,4.24-.42,1.61.27,3.15,2.11,4.13,2.11.81,0,1.27-.67,1.97-.92,1.32-.48,6.43-.94,7.8-.71.78.13,1.63.85,2.22.89.81.05,2-.32,3.1-.23.57.05,1.27.47,1.63.42.78-.12,1.5-.84,2.91-.9s2.87.71,3.32.67c.14-.01,2.49-1.13,2.58-1.24.31-.4.4-1.88.89-2.7,2.12-3.6,7.87-3.19,9.61.55.31.68,1.33,5.09,1.44,5.97.46,3.69-1.2,7.48-5.18,8.16-.72.12-1.42-.03-2.08.07-2.03.32-2.62,1.29-5.17.59-.66-.18-1.55-.81-2.04-.85-.68-.04-1.92.76-3.09.73-1.27-.03-2.55-.92-3.37-.97-.6-.04-1.34.45-2.14.49-.92.04-1.74-.36-2.62-.25-.72.1-1.66.76-2.47.89s-5.38-.31-6.35-.48-1.58-.93-2.26-1.09c-2.18-.5-3.63,1.73-6.43,1.63-1.94-.07-2.82-1.21-3.88-1.41-1.16-.21-2.32.76-4.43.13-1.44-.43-2.9-2.11-3.47-2.27-.65-.19-1.64,0-2.48-.16-3.57-.66-4.04-3.8-5.97-5.99-.95-1.08-2.05-1.29-2.93-2.82-1.35-2.34-.49-3.61-1.03-5.67-.32-1.22-2.1-2.13-2.05-3.58Z" style="fill:#252422;"/></svg>