<?xml version="1.0" encoding="UTF-8"?><svg id="Layer_1" xmlns="http://www.w3.org/2000/svg" viewBox="0 0 361.3 77.55"><path d="M6.19,19.59c.79,0,1.3.79,1.3,2.02v14.69c0,1.15-.5,1.94-1.3,1.94H1.3c-.79,0-1.3-.79-1.3-1.94v-14.69c0-1.22.5-2.02,1.3-2.02h4.9ZM22.61,39.03c.72,0,1.22.79,1.22,1.87-.14,14.26-1.8,16.99-11.95,16.99H1.22c-.72,0-1.22-.72-1.22-1.87v-15.12c0-1.15.5-1.87,1.22-1.87h5.04c.72,0,1.22.72,1.3,1.87.07,6.05,1.22,7.63,4.32,7.63s4.25-1.58,4.39-7.63c0-1.15.5-1.87,1.22-1.87h5.11ZM6.26,58.69c.72,0,1.22.72,1.22,1.87v14.98c0,1.08-.5,1.87-1.22,1.87H1.22c-.72,0-1.22-.79-1.22-1.87v-14.98c0-1.15.5-1.87,1.22-1.87h5.04ZM11.88,28.73h-2.38c-.72,0-1.22-.72-1.22-1.8v-5.47c0-1.08.5-1.8,1.22-1.8h2.38c10.22,0,11.81,2.52,11.95,16.78,0,1.08-.5,1.87-1.22,1.87h-5.11c-.72,0-1.22-.79-1.22-1.87-.14-6.05-1.22-7.7-4.39-7.7Z" style="fill:#231f20;"/><path d="M40.03,28.8c-3.1,0-4.18,1.58-4.32,7.63-.07,1.08-.5,1.87-1.3,1.87h-5.04c-.79,0-1.22-.79-1.22-1.87.07-14.19,1.8-16.78,11.88-16.78s11.81,2.59,11.95,16.78c0,1.08-.5,1.87-1.22,1.87h-5.04c-.72,0-1.22-.79-1.3-1.87-.14-6.05-1.22-7.63-4.39-7.63ZM29.81,40.9c0-1.08.5-1.87,1.22-1.87h19.66c.79,0,1.22.79,1.22,1.87v5.54c0,1.08-.43,1.87-1.22,1.87h-13.61c-.36,0-.58.36-.5.86l1.01,6.91c.14,1.08-.22,1.8-.94,1.8h-5.11c-.72,0-1.3-.72-1.51-1.8l-1.73-12.17c-.22-1.08.22-1.8.94-1.8h.22c.22,0,.36-.22.36-.58v-.65Z" style="fill:#231f20;"/><path d="M68.62,19.66c1.15,0,2.02,1.22,2.02,3.02v3.17c0,1.8-.86,3.02-2.02,3.02h-4.75c-.36,0-.65.43-.65.94v6.62c0,1.08-.5,1.87-1.22,1.87h-5.04c-.79,0-1.22-.79-1.22-1.87v-12.31c0-.79.36-1.37.86-1.37h.43c.22,0,.36-.22.36-.58v-.72c0-1.08.5-1.8,1.22-1.8h10.01ZM55.73,40.9c0-1.08.43-1.87,1.22-1.87h5.04c.72,0,1.22.79,1.22,1.87v15.12c0,1.15-.5,1.87-1.22,1.87h-5.04c-.79,0-1.22-.72-1.22-1.87v-15.12Z" style="fill:#231f20;"/><path d="M82.58,12.24c0,.22-.07.43-.22.65l-3.89,5.4c-.22.36-.58.58-.94.58h-1.58c-.36,0-.72-.22-.94-.58l-3.89-5.4c-.14-.22-.22-.43-.22-.65v-5.54c0-.22.07-.5.22-.65l3.89-5.47c.22-.29.58-.5.94-.5h1.58c.36,0,.72.22.94.5l3.89,5.47c.14.14.22.43.22.65v5.54ZM79.2,19.66c.79,0,1.3.79,1.3,1.94v14.69c0,1.22-.5,2.02-1.3,2.02h-4.97c-.79,0-1.3-.79-1.3-2.02v-14.69c0-1.15.5-1.94,1.3-1.94h4.97ZM74.23,57.89c-.79,0-1.3-.79-1.3-1.94v-14.91c0-1.15.5-1.94,1.3-1.94h4.97c.79,0,1.3.79,1.3,1.94v14.91c0,1.15-.5,1.94-1.3,1.94h-4.97Z" style="fill:#231f20;"/><path d="M91.22,19.59c.79,0,1.3.79,1.3,2.02v14.69c0,1.15-.5,1.94-1.3,1.94h-4.9c-.79,0-1.3-.79-1.3-1.94v-14.69c0-1.22.5-2.02,1.3-2.02h4.9ZM107.64,39.03c.72,0,1.22.79,1.22,1.87-.14,14.26-1.8,16.99-11.95,16.99h-10.66c-.72,0-1.22-.72-1.22-1.87v-15.12c0-1.15.5-1.87,1.22-1.87h5.04c.72,0,1.22.72,1.3,1.87.07,6.05,1.22,7.63,4.32,7.63s4.25-1.58,4.39-7.63c0-1.15.5-1.87,1.22-1.87h5.11ZM91.29,58.69c.72,0,1.22.72,1.22,1.87v14.98c0,1.08-.5,1.87-1.22,1.87h-5.04c-.72,0-1.22-.79-1.22-1.87v-14.98c0-1.15.5-1.87,1.22-1.87h5.04ZM96.91,28.73h-2.38c-.72,0-1.22-.72-1.22-1.8v-5.47c0-1.08.5-1.8,1.22-1.8h2.38c10.22,0,11.81,2.52,11.95,16.78,0,1.08-.5,1.87-1.22,1.87h-5.11c-.72,0-1.22-.79-1.22-1.87-.14-6.05-1.22-7.7-4.39-7.7Z" style="fill:#231f20;"/><path d="M119.23,0c.72,0,1.22.79,1.22,1.87v15.12c0,1.08-.5,1.87-1.22,1.87h-5.11c-.72,0-1.22-.79-1.22-1.87V1.87c0-1.08.5-1.87,1.22-1.87h5.11ZM114.12,57.89c-.72,0-1.22-.72-1.22-1.87v-15.12c0-1.08.5-1.87,1.22-1.87h5.11c.72,0,1.22.79,1.22,1.87v15.12c0,1.15-.5,1.87-1.22,1.87h-5.11ZM130.46,38.24c-.72,0-1.22-.72-1.22-1.8-.14-6.05-1.3-7.63-4.39-7.63s-4.25,1.58-4.39,7.63c0,1.08-.5,1.8-1.22,1.8h-5.04c-.79,0-1.22-.72-1.22-1.8v-14.98c0-1.08.43-1.8,1.22-1.8h10.66c10.23,0,11.81,2.45,11.88,16.78,0,1.08-.43,1.8-1.22,1.8h-5.04ZM130.54,57.89c-.79,0-1.3-.79-1.3-1.94v-14.91c0-1.22.5-2.02,1.3-2.02h4.9c.79,0,1.3.79,1.3,2.02v14.91c0,1.15-.5,1.94-1.3,1.94h-4.9Z" style="fill:#231f20;"/><path d="M151.92,28.8c-3.1,0-4.18,1.58-4.32,7.63-.07,1.08-.5,1.87-1.3,1.87h-5.04c-.79,0-1.22-.79-1.22-1.87.07-14.19,1.8-16.78,11.88-16.78s11.81,2.59,11.95,16.78c0,1.08-.5,1.87-1.22,1.87h-5.04c-.72,0-1.22-.79-1.3-1.87-.14-6.05-1.22-7.63-4.39-7.63ZM141.69,40.9c0-1.08.5-1.87,1.22-1.87h19.66c.79,0,1.22.79,1.22,1.87v5.54c0,1.08-.43,1.87-1.22,1.87h-13.61c-.36,0-.58.36-.5.86l1.01,6.91c.14,1.08-.22,1.8-.94,1.8h-5.11c-.72,0-1.3-.72-1.51-1.8l-1.73-12.17c-.22-1.08.22-1.8.94-1.8h.22c.22,0,.36-.22.36-.58v-.65Z" style="fill:#231f20;"/><path d="M180.5,19.66c1.15,0,2.02,1.22,2.02,3.02v3.17c0,1.8-.86,3.02-2.02,3.02h-4.75c-.36,0-.65.43-.65.94v6.62c0,1.08-.5,1.87-1.22,1.87h-5.04c-.79,0-1.22-.79-1.22-1.87v-12.31c0-.79.36-1.37.86-1.37h.43c.22,0,.36-.22.36-.58v-.72c0-1.08.5-1.8,1.22-1.8h10.01ZM167.61,40.9c0-1.08.43-1.87,1.22-1.87h5.04c.72,0,1.22.79,1.22,1.87v15.12c0,1.15-.5,1.87-1.22,1.87h-5.04c-.79,0-1.22-.72-1.22-1.87v-15.12Z" style="fill:#231f20;"/><path d="M194.26,26.86c0,1.01-.36,1.66-1.3,2.38-1.51.58-2.23,2.23-2.3,7.06,0,1.22-.58,1.94-1.37,1.94h-4.82c-.86,0-1.37-.79-1.37-1.94.14-13.46,1.58-16.42,9.87-16.71.79,0,1.3.79,1.3,2.02v5.26ZM196.7,39.03h4.9c.79,0,1.3.79,1.3,2.02-.14,14.11-1.87,16.85-10.01,16.85s-9.65-2.74-9.79-16.85c0-1.22.5-2.02,1.37-2.02h4.82c.79,0,1.37.79,1.37,2.02.14,5.9.79,7.42,2.38,7.42s2.23-1.51,2.38-7.42c0-1.22.58-2.02,1.3-2.02ZM209.59,22.11c0,.36.14.58.36.58h.22c.58,0,1.01.58,1.01,1.51v12.1c0,1.15-.5,1.94-1.3,1.94h-4.9c-.79,0-1.37-.79-1.37-1.94v-7.06c0-.29-.14-.5-.36-.5s-.36.22-.36.5v7.06c0,1.15-.5,1.94-1.3,1.94h-4.9c-.79,0-1.3-.79-1.3-1.94v-12.17c0-.86.43-1.44,1.01-1.44h.36c.22,0,.36-.29.36-.65v-.43c0-1.22.58-2.02,1.37-2.02h9.72c.79,0,1.37.79,1.37,2.02v.5ZM211.18,55.88c0,1.22-.5,2.02-1.3,2.02h-4.9c-.79,0-1.37-.79-1.37-2.02v-14.83c0-1.22.58-2.02,1.37-2.02h4.9c.79,0,1.3.79,1.3,2.02v14.83Z" style="fill:#231f20;"/><path d="M219.24,0c.72,0,1.22.72,1.22,1.8v.72c0,.29.14.58.36.58h.43c.58,0,.94.5.94,1.37v12.53c0,1.08-.5,1.87-1.22,1.87h-5.11c-.72,0-1.22-.79-1.22-1.87v-6.84c0-.58-.22-.94-.58-.94h-2.02c-.72,0-1.22-.72-1.22-1.87V1.8c0-1.08.5-1.8,1.22-1.8h7.2ZM220.97,19.59c.72,0,1.22.72,1.22,1.87v14.91c0,1.15-.5,1.87-1.22,1.87h-5.11c-.72,0-1.22-.72-1.22-1.87v-14.91c0-1.15.5-1.87,1.22-1.87h5.11ZM217.66,57.89c-.79,0-1.22-.72-1.22-1.87v-.65c0-.36-.14-.58-.43-.58h-.43c-.58,0-.94-.58-.94-1.37v-12.53c0-1.08.5-1.87,1.22-1.87h5.11c.72,0,1.22.79,1.22,1.87v6.84c0,.58.22.94.65.94h1.94c.72,0,1.22.72,1.22,1.8v5.54c0,1.15-.5,1.87-1.22,1.87h-7.13Z" style="fill:#231f20;"/><path d="M252.43,57.89c-6.41,0-10.15-5.26-10.73-13.11l-.22-1.66c-.29-2.45-.22-4.1,2.23-4.1h2.59c1.94,0,2.45,1.22,2.81,3.1l.36,1.87c.22,2.74,1.58,4.54,3.82,4.54,2.38,0,3.31-2.52,1.22-4.68-1.3-1.3-1.66-1.73-2.88-2.88-1.3-1.08-1.3-1.94-.36-1.94h4.61c1.22,0,1.73.29,2.66.86,3.38,2.38,5.33,4.61,5.69,8.5.58,4.18-1.44,9.5-8.5,9.5h-3.31ZM254.02,19.59c6.55,0,10.08,5.26,10.73,13.1l.14,1.44c.29,2.45.22,4.1-2.23,4.1h-2.66c-1.87,0-2.38-1.22-2.81-3.1l-.36-1.87c-.22-2.74-1.51-4.54-3.74-4.54-2.38,0-3.31,2.66-1.3,4.82,1.3,1.3,1.87,1.8,3.17,2.88s1.3,1.8.36,1.8h-4.61c-1.22,0-1.8-.29-2.74-.86-3.46-2.38-5.47-4.61-5.83-8.57-.65-4.25,1.58-9.22,8.57-9.22h3.31Z" style="fill:#231f20;"/><path d="M277.99,28.87c-.36,0-.65.43-.65,1.01v6.41c0,1.15-.5,1.94-1.3,1.94h-4.9c-.79,0-1.3-.79-1.3-1.94v-6.41c0-.58-.29-1.01-.65-1.01h-2.16c-1.3,0-2.16-1.3-2.16-3.24v-2.74c0-2.02.86-3.31,2.16-3.31h16.78c1.3,0,2.16,1.3,2.16,3.31v2.74c0,1.94-.86,3.24-2.16,3.24h-5.83ZM276.12,0c.72,0,1.22.79,1.22,1.87v15.12c0,1.08-.5,1.87-1.22,1.87h-9.29c-1.22,0-1.8-1.15-1.3-2.88l3.89-14.26c.22-1.01.94-1.73,1.66-1.73h5.04ZM272.95,57.89c-.79,0-1.37-.79-1.37-2.02v-.5c0-.36-.14-.58-.36-.58h-.36c-.65,0-1.01-.58-1.01-1.51v-12.24c0-1.22.5-2.02,1.3-2.02h4.9c.79,0,1.3.79,1.3,2.02v7.13c0,.29.14.5.36.5h.07c.22,0,.36-.22.36-.5l.5-7.13c0-1.22.58-2.02,1.37-2.02h4.9c.79,0,1.22.79,1.01,1.94l-1.8,12.38c-.14.86-.65,1.44-1.22,1.44h-.36c-.22,0-.43.22-.43.58v.5c0,1.22-.5,2.02-1.3,2.02h-7.85Z" style="fill:#231f20;"/><path d="M295.42,19.66c.72,0,1.22.72,1.22,1.8v14.98c0,1.08-.5,1.8-1.22,1.8h-5.04c-.72,0-1.22-.72-1.22-1.8v-14.98c0-1.08.5-1.8,1.22-1.8h5.04ZM302.76,39.1h4.9c.79,0,1.3.79,1.3,1.94-.14,14.19-1.66,16.92-9.86,16.92s-9.79-2.74-9.94-16.92c0-1.15.58-1.94,1.37-1.94h4.83c.79,0,1.3.79,1.37,1.94.07,5.76.65,7.49,2.38,7.49s2.23-1.73,2.38-7.49c0-1.15.5-1.94,1.3-1.94ZM307.66,19.66c.79,0,1.3.72,1.3,1.8v14.98c0,1.08-.5,1.8-1.3,1.8h-5.04c-.72,0-1.22-.72-1.22-1.8v-14.98c0-1.08.5-1.8,1.22-1.8h5.04Z" style="fill:#231f20;"/><path d="M313.92,38.24c-.79,0-1.22-.72-1.22-1.8.07-14.33,1.66-16.78,11.88-16.78h10.66c.79,0,1.3.72,1.3,1.8v14.98c0,1.08-.5,1.8-1.3,1.8h-5.04c-.72,0-1.22-.72-1.22-1.8-.14-6.05-1.3-7.63-4.39-7.63s-4.25,1.58-4.32,7.63c-.07,1.08-.58,1.8-1.3,1.8h-5.04ZM324.58,48.6h2.38c.79,0,1.22.72,1.22,1.87v5.54c0,1.15-.43,1.87-1.22,1.87h-2.38c-10.22,0-11.81-2.74-11.88-16.99,0-1.08.5-1.87,1.22-1.87h5.04c.72,0,1.22.72,1.3,1.87.07,6.05,1.22,7.71,4.32,7.71ZM330.19,18.87c-.72,0-1.22-.79-1.22-1.87V1.87c0-1.15.5-1.87,1.22-1.87h5.04c.79,0,1.3.72,1.3,1.87v15.12c0,1.08-.5,1.87-1.3,1.87h-5.04ZM328.97,40.9c0-1.15.5-1.87,1.22-1.87h4.97c.72,0,1.22.72,1.22,1.87v15.12c0,1.08-.5,1.8-1.22,1.8h-4.97c-.72,0-1.22-.72-1.22-1.8v-15.12Z" style="fill:#231f20;"/><path d="M360,39.03c.72,0,1.22.79,1.22,1.87v15.12c0,1.15-.5,1.87-1.22,1.87h-8.71c-8.14,0-9.72-2.74-9.87-16.99,0-1.08.5-1.87,1.22-1.87h5.04c.72,0,1.22.72,1.3,1.87.07,6.05.72,7.63,2.3,7.63s2.3-1.58,2.45-7.63c0-1.15.5-1.87,1.22-1.87h5.04ZM347.76,19.66c.72,0,1.22.72,1.22,1.8v14.98c0,1.08-.5,1.8-1.22,1.8h-5.04c-.72,0-1.22-.72-1.22-1.8v-14.98c0-1.08.5-1.8,1.22-1.8h5.04ZM349.34,70.28c0-1.08.43-1.87,1.3-2.23,2.23-.5,2.88-2.38,3.02-7.34.07-1.22.58-1.94,1.37-1.94h4.9c.79,0,1.37.79,1.3,1.94-.14,14.19-2.23,16.63-10.58,16.85-.79,0-1.3-.79-1.3-1.94v-5.33ZM360.07,19.66c.72,0,1.22.72,1.22,1.8v14.98c0,1.08-.5,1.8-1.22,1.8h-5.04c-.79,0-1.22-.72-1.22-1.8v-14.98c0-1.08.43-1.8,1.22-1.8h5.04Z" style="fill:#231f20;"/></svg>