<?xml version="1.0" encoding="UTF-8"?><svg id="Layer_1" xmlns="http://www.w3.org/2000/svg" viewBox="0 0 175.63 148.88"><path d="M103.8,40.11c.6-.63,1.05-3.24,2.12-4.62.97-1.24,2.37-1.72,3.27-2.72.71-.78,5.71-6.63,5.94-7.03,1.85-3.19,1.26-6.2,5.02-9.45,4.39-3.79,6.87-2.96,11.93-3.54,1.34-.16,2.4-.91,4.02-.99,5.49-.26,9.97,5.59,9.74,10.75-.19,4.26-.83,10.14-3.27,13.69-.62.9-2.44,2.09-2.64,2.88-.22.86.79,2.63.93,3.88.48,4.6-1.44,8.47-4.49,11.72,1.91,1.08,3.16-.33,4.78-.45,4.68-.37,8.53.11,12.19,3.2,1.27,1.07,2.58,3.37,3.51,3.97,3.45,2.26,8.98,4.33,12.87,5.59,8.92,2.91,7.54,15.31-2.72,17.07-4.22.72-4.77,1.26-8.57,2.41-4.63,1.41-5.37-.09-8.9-.35-5.26-.38-9.89.42-15.8-.63-2.51-.45-4.34-2.29-6.54-3.34-.35.06-4.43,4.94-4.58,5.42-.42,1.36-.06,2.78-.34,4.15-.78,3.84-2.69,4.96-1.85,10.06.58,3.5,3.65,2.63,6.31,3.67,4.46,1.75,4.94,4.4,7.42,7.55,2.16,2.74,3.99,1.95,6.97,3.01,4.33,1.55,7.69,6.06,7.76,10.75.03,2.44.11,7.14-.17,9.35-1.54,11.88-16.31,16.98-24.84,8.63-1-.98-3.12-4.8-3.47-5.02-.82-.51-4.01-.21-5.52-.46-5.29-.9-8.95-4.97-10.61-9.85-.45-1.33-.15-2.91-.89-4.1-.44-.7-1.45-.94-1.94-1.55-2.59-3.2-4.19-7.08-8.69-8.27-1.33,2.17-2.67,3.84-4.84,5.23-1.63,1.05-6.24,2.47-6.98,3.5-.64.89-.91,3.86-1.59,5.39-1.12,2.51-2.98,6.12-4.27,8.7-3.16,6.35-8.78,7.4-15.27,7.11-.9-.04-1.76-.74-2.6-.8-3.68-.29-5.99,1.65-9.17-2.41-1.52-1.94-4.47-10.93-4.44-13.41.05-4.21,2.08-5.71,3.19-8.78.84-2.3.56-4.82,1.65-7.33,1.26-2.9,5.31-5.01,5.57-7.94.07-.78-.86-7.32-1.1-8.32-.59-2.42-3.01-5.3-2.89-8.34-.85-.61-2.86,3.19-3.74,3.99s-3.71,2.01-4.01,2.49c-.66,1.04.32,2.22.27,3.25-.22,5.31-3.69,10.7-8.49,12.97-4.3,2.03-4.88,2.89-8.45,5.02-1.36.81-6,3.15-7.4,3.57-3.64,1.11-6.53.86-9.93-.77-9.42-4.52-10.79-10.6-4.06-18.71,2.63-3.17,6.95-4.13,9.36-6.61,2.03-2.09,2.18-4.96,5.57-7.41,2.29-1.65,7.56-2.71,8.44-3.54,1.89-1.79-.55-8.34,2-10.98-4.41-.42-9.18-1.23-12.49-4.47-1.01-.99-1.92-3.25-2.69-3.79-.87-.62-3.65-.94-5.22-1.77-5.94-3.15-7.65-10.32-4.15-16,1.4-2.27,9.14-9.04,11.59-9.87,3.21-1.09,6.84-1.1,10.08-.12,2.23.67,3.98,2.7,5.35,3.13,1.51.48,3.32.11,5.04.45,2.74.53,4.9,2.9,6.33,3.19,1.24.25,5.46-.44,7.39-.44,1.43,0,4.57,1.49,4.69-1.2.08-1.71-1.73-4.15-1.46-7.5.19-2.36,2.02-5.39,2.02-6.99,0-1.39-1.26-2.93-1.49-4.53-.66-4.68,1.86-15.65,5.48-18.88,5.22-4.67,17.23-2.38,22.16,1.73,5.77,4.8,4.19,8.4,4.75,14.71.27,3.01,1.54,4.62.88,8.36-.25,1.43-1.2,2.52-1.39,4.1-.43,3.41.29,7.36.76,10.74l6.92,5.44c2.51-1.31,3.72-4.14,5.84-5.67.98-.7,3.35-1.39,3.84-1.9Z" style="fill:#252422;"/></svg>